<?xml version="1.0" encoding="UTF-8" standalone="no"?>
<!DOCTYPE svg PUBLIC "-//W3C//DTD SVG 1.1//EN"
 "http://www.w3.org/Graphics/SVG/1.1/DTD/svg11.dtd">
<!-- Generated by graphviz version 2.28.0 (20120228.1926)
 -->
<!-- Title: controllers_diagram Pages: 1 -->
<svg width="598pt" height="415pt"
 viewBox="0.00 0.00 597.75 415.00" xmlns="http://www.w3.org/2000/svg" xmlns:xlink="http://www.w3.org/1999/xlink">
<g id="graph1" class="graph" transform="scale(1 1) rotate(0) translate(4 411)">
<title>controllers_diagram</title>
<polygon fill="white" stroke="white" points="-4,5 -4,-411 594.75,-411 594.75,5 -4,5"/>
<!-- _diagram_info -->
<g id="node1" class="node"><title>_diagram_info</title>
<text text-anchor="start" x="343.75" y="-255.6" font-family="Times,serif" font-size="13.00">Controllers diagram</text>
<text text-anchor="start" x="343.75" y="-241.6" font-family="Times,serif" font-size="13.00">Date: Oct 02 2012 &#45; 20:15</text>
<text text-anchor="start" x="343.75" y="-227.6" font-family="Times,serif" font-size="13.00">Migration version: 20120925191312</text>
<text text-anchor="start" x="343.75" y="-213.6" font-family="Times,serif" font-size="13.00">Generated by RailRoady 1.1.0</text>
<text text-anchor="start" x="343.75" y="-199.6" font-family="Times,serif" font-size="13.00">http://railroady.prestonlee.com</text>
</g>
<!-- ApplicationController -->
<g id="node2" class="node"><title>ApplicationController</title>
<polyline fill="none" stroke="black" points="11.75,-146.981 242.75,-146.981 "/>
<path fill="none" stroke="black" d="M242.75,-146.981C248.75,-146.981 254.75,-152.981 254.75,-158.981"/>
<polyline fill="none" stroke="black" points="254.75,-158.981 254.75,-227.981 "/>
<path fill="none" stroke="black" d="M254.75,-227.981C254.75,-233.981 248.75,-239.981 242.75,-239.981"/>
<polyline fill="none" stroke="black" points="242.75,-239.981 11.75,-239.981 "/>
<path fill="none" stroke="black" d="M11.75,-239.981C5.75,-239.981 -0.25,-233.981 -0.25,-227.981"/>
<polyline fill="none" stroke="black" points="-0.25,-227.981 -0.25,-158.981 "/>
<path fill="none" stroke="black" d="M-0.25,-158.981C-0.25,-152.981 5.75,-146.981 11.75,-146.981"/>
<text text-anchor="middle" x="127.25" y="-224.781" font-family="Times,serif" font-size="14.00">ApplicationController</text>
<polyline fill="none" stroke="black" points="-0.25,-216.981 254.75,-216.981 "/>
<text text-anchor="start" x="7.75" y="-201.781" font-family="Times,serif" font-size="14.00">_one_time_conditions_valid_680?</text>
<polyline fill="none" stroke="black" points="-0.25,-193.981 254.75,-193.981 "/>
<polyline fill="none" stroke="black" points="-0.25,-169.981 254.75,-169.981 "/>
<text text-anchor="start" x="7.75" y="-154.781" font-family="Times,serif" font-size="14.00">_layout</text>
</g>
<!-- PublicController -->
<g id="node5" class="node"><title>PublicController</title>
<polyline fill="none" stroke="black" points="161.193,-248.981 272.193,-248.981 "/>
<path fill="none" stroke="black" d="M272.193,-248.981C278.193,-248.981 284.193,-254.981 284.193,-260.981"/>
<polyline fill="none" stroke="black" points="284.193,-260.981 284.193,-359.981 "/>
<path fill="none" stroke="black" d="M284.193,-359.981C284.193,-365.981 278.193,-371.981 272.193,-371.981"/>
<polyline fill="none" stroke="black" points="272.193,-371.981 161.193,-371.981 "/>
<path fill="none" stroke="black" d="M161.193,-371.981C155.193,-371.981 149.193,-365.981 149.193,-359.981"/>
<polyline fill="none" stroke="black" points="149.193,-359.981 149.193,-260.981 "/>
<path fill="none" stroke="black" d="M149.193,-260.981C149.193,-254.981 155.193,-248.981 161.193,-248.981"/>
<text text-anchor="middle" x="216.693" y="-356.781" font-family="Times,serif" font-size="14.00">PublicController</text>
<polyline fill="none" stroke="black" points="149.193,-348.981 284.193,-348.981 "/>
<text text-anchor="start" x="157.193" y="-333.781" font-family="Times,serif" font-size="14.00">about</text>
<text text-anchor="start" x="157.193" y="-318.781" font-family="Times,serif" font-size="14.00">index</text>
<text text-anchor="start" x="157.193" y="-303.781" font-family="Times,serif" font-size="14.00">specs</text>
<polyline fill="none" stroke="black" points="149.193,-295.981 284.193,-295.981 "/>
<polyline fill="none" stroke="black" points="149.193,-271.981 284.193,-271.981 "/>
<text text-anchor="start" x="157.193" y="-256.781" font-family="Times,serif" font-size="14.00">_layout</text>
</g>
<!-- ApplicationController&#45;&gt;PublicController -->
<g id="edge2" class="edge"><title>ApplicationController&#45;&gt;PublicController</title>
<path fill="none" stroke="black" d="M162.857,-240.058C165.098,-242.99 167.371,-245.963 169.652,-248.946"/>
</g>
<!-- ApplyController -->
<g id="node6" class="node"><title>ApplyController</title>
<polyline fill="none" stroke="black" points="24.934,-0.5 131.934,-0.5 "/>
<path fill="none" stroke="black" d="M131.934,-0.5C137.934,-0.5 143.934,-6.5 143.934,-12.5"/>
<polyline fill="none" stroke="black" points="143.934,-12.5 143.934,-96.5 "/>
<path fill="none" stroke="black" d="M143.934,-96.5C143.934,-102.5 137.934,-108.5 131.934,-108.5"/>
<polyline fill="none" stroke="black" points="131.934,-108.5 24.934,-108.5 "/>
<path fill="none" stroke="black" d="M24.934,-108.5C18.934,-108.5 12.934,-102.5 12.934,-96.5"/>
<polyline fill="none" stroke="black" points="12.934,-96.5 12.934,-12.5 "/>
<path fill="none" stroke="black" d="M12.934,-12.5C12.934,-6.5 18.934,-0.5 24.934,-0.5"/>
<text text-anchor="middle" x="78.434" y="-93.3" font-family="Times,serif" font-size="14.00">ApplyController</text>
<polyline fill="none" stroke="black" points="12.934,-85.5 143.934,-85.5 "/>
<text text-anchor="start" x="20.934" y="-70.3" font-family="Times,serif" font-size="14.00">create</text>
<text text-anchor="start" x="20.934" y="-55.3" font-family="Times,serif" font-size="14.00">new</text>
<polyline fill="none" stroke="black" points="12.934,-47.5 143.934,-47.5 "/>
<polyline fill="none" stroke="black" points="12.934,-23.5 143.934,-23.5 "/>
<text text-anchor="start" x="20.934" y="-8.3" font-family="Times,serif" font-size="14.00">_layout</text>
</g>
<!-- ApplicationController&#45;&gt;ApplyController -->
<g id="edge4" class="edge"><title>ApplicationController&#45;&gt;ApplyController</title>
<path fill="none" stroke="black" d="M110.859,-146.815C106.594,-134.671 101.961,-121.481 97.567,-108.972"/>
</g>
<!-- Cms::NewsController -->
<g id="node3" class="node"><title>Cms::NewsController</title>
<polyline fill="none" stroke="black" points="347.75,-312.5 495.75,-312.5 "/>
<path fill="none" stroke="black" d="M495.75,-312.5C501.75,-312.5 507.75,-318.5 507.75,-324.5"/>
<polyline fill="none" stroke="black" points="507.75,-324.5 507.75,-394.5 "/>
<path fill="none" stroke="black" d="M507.75,-394.5C507.75,-400.5 501.75,-406.5 495.75,-406.5"/>
<polyline fill="none" stroke="black" points="495.75,-406.5 347.75,-406.5 "/>
<path fill="none" stroke="black" d="M347.75,-406.5C341.75,-406.5 335.75,-400.5 335.75,-394.5"/>
<polyline fill="none" stroke="black" points="335.75,-394.5 335.75,-324.5 "/>
<path fill="none" stroke="black" d="M335.75,-324.5C335.75,-318.5 341.75,-312.5 347.75,-312.5"/>
<text text-anchor="middle" x="421.75" y="-391.3" font-family="Times,serif" font-size="14.00">Cms::NewsController</text>
<polyline fill="none" stroke="black" points="335.75,-383.5 507.75,-383.5 "/>
<polyline fill="none" stroke="black" points="335.75,-359.5 507.75,-359.5 "/>
<polyline fill="none" stroke="black" points="335.75,-335.5 507.75,-335.5 "/>
<text text-anchor="start" x="343.75" y="-320.3" font-family="Times,serif" font-size="14.00">_layout</text>
</g>
<!-- CustomController -->
<g id="node4" class="node"><title>CustomController</title>
<polyline fill="none" stroke="black" points="299.75,-48.5 530.75,-48.5 "/>
<path fill="none" stroke="black" d="M530.75,-48.5C536.75,-48.5 542.75,-54.5 542.75,-60.5"/>
<polyline fill="none" stroke="black" points="542.75,-60.5 542.75,-144.5 "/>
<path fill="none" stroke="black" d="M542.75,-144.5C542.75,-150.5 536.75,-156.5 530.75,-156.5"/>
<polyline fill="none" stroke="black" points="530.75,-156.5 299.75,-156.5 "/>
<path fill="none" stroke="black" d="M299.75,-156.5C293.75,-156.5 287.75,-150.5 287.75,-144.5"/>
<polyline fill="none" stroke="black" points="287.75,-144.5 287.75,-60.5 "/>
<path fill="none" stroke="black" d="M287.75,-60.5C287.75,-54.5 293.75,-48.5 299.75,-48.5"/>
<text text-anchor="middle" x="415.25" y="-141.3" font-family="Times,serif" font-size="14.00">CustomController</text>
<polyline fill="none" stroke="black" points="287.75,-133.5 542.75,-133.5 "/>
<text text-anchor="start" x="295.75" y="-118.3" font-family="Times,serif" font-size="14.00">_one_time_conditions_valid_694?</text>
<polyline fill="none" stroke="black" points="287.75,-110.5 542.75,-110.5 "/>
<polyline fill="none" stroke="black" points="287.75,-86.5 542.75,-86.5 "/>
<text text-anchor="start" x="295.75" y="-71.3" font-family="Times,serif" font-size="14.00">_layout</text>
<text text-anchor="start" x="295.75" y="-56.3" font-family="Times,serif" font-size="14.00">get_home_page</text>
</g>
</g>
</svg>
