<?xml version="1.0" encoding="UTF-8" standalone="no"?>
<!DOCTYPE svg PUBLIC "-//W3C//DTD SVG 1.1//EN"
 "http://www.w3.org/Graphics/SVG/1.1/DTD/svg11.dtd">
<!-- Generated by graphviz version 2.28.0 (20120228.1926)
 -->
<!-- Title: models_diagram Pages: 1 -->
<svg width="576pt" height="174pt"
 viewBox="0.00 0.00 576.00 174.00" xmlns="http://www.w3.org/2000/svg" xmlns:xlink="http://www.w3.org/1999/xlink">
<g id="graph1" class="graph" transform="scale(1 1) rotate(0) translate(4 170)">
<title>models_diagram</title>
<polygon fill="white" stroke="white" points="-4,5 -4,-170 573,-170 573,5 -4,5"/>
<!-- _diagram_info -->
<g id="node1" class="node"><title>_diagram_info</title>
<text text-anchor="start" x="8" y="-151.6" font-family="Times,serif" font-size="13.00">Models diagram</text>
<text text-anchor="start" x="8" y="-137.6" font-family="Times,serif" font-size="13.00">Date: Oct 02 2012 &#45; 20:15</text>
<text text-anchor="start" x="8" y="-123.6" font-family="Times,serif" font-size="13.00">Migration version: 20120925191312</text>
<text text-anchor="start" x="8" y="-109.6" font-family="Times,serif" font-size="13.00">Generated by RailRoady 1.1.0</text>
<text text-anchor="start" x="8" y="-95.6" font-family="Times,serif" font-size="13.00">http://railroady.prestonlee.com</text>
</g>
<!-- News -->
<g id="node2" class="node"><title>News</title>
<ellipse fill="none" stroke="black" cx="309" cy="-127" rx="37.0701" ry="18"/>
<text text-anchor="middle" x="309" y="-123.3" font-family="Times,serif" font-size="14.00">News</text>
</g>
<!-- Cms::Attachment -->
<g id="node5" class="node"><title>Cms::Attachment</title>
<ellipse fill="none" stroke="black" cx="112" cy="-18" rx="92.413" ry="18"/>
<text text-anchor="middle" x="112" y="-14.3" font-family="Times,serif" font-size="14.00">Cms::Attachment</text>
</g>
<!-- News&#45;&gt;Cms::Attachment -->
<g id="edge2" class="edge"><title>News&#45;&gt;Cms::Attachment</title>
<path fill="none" stroke="#0d9c30" d="M286.698,-105.014C279.507,-98.971 271.253,-92.7391 263,-88 242.88,-76.447 235.298,-79.2022 214,-70 192.758,-60.8221 169.652,-49.3944 150.811,-39.6841"/>
<ellipse fill="none" stroke="#0d9c30" cx="289.953" cy="-107.839" rx="4.00002" ry="4.00002"/>
<polygon fill="#0d9c30" stroke="#0d9c30" points="150.806,-39.6816 144.006,-31.0791 146.369,-37.3771 141.932,-35.0726 141.932,-35.0726 141.932,-35.0726 146.369,-37.3771 139.858,-39.0662 150.806,-39.6816 150.806,-39.6816"/>
<text text-anchor="middle" x="259.5" y="-58.3" font-family="Times,serif" font-size="14.00">attachments</text>
</g>
<!-- Cms::Connector -->
<g id="node7" class="node"><title>Cms::Connector</title>
<ellipse fill="none" stroke="black" cx="309" cy="-18" rx="86.1637" ry="18"/>
<text text-anchor="middle" x="309" y="-14.3" font-family="Times,serif" font-size="14.00">Cms::Connector</text>
</g>
<!-- News&#45;&gt;Cms::Connector -->
<g id="edge4" class="edge"><title>News&#45;&gt;Cms::Connector</title>
<path fill="none" stroke="#19f3d8" d="M309,-100.772C309,-84.4341 309,-63.1608 309,-46.4078"/>
<ellipse fill="none" stroke="#19f3d8" cx="309" cy="-104.809" rx="4" ry="4"/>
<polygon fill="#19f3d8" stroke="#19f3d8" points="309,-46.1487 313.5,-36.1487 309,-41.1487 309,-36.1487 309,-36.1487 309,-36.1487 309,-41.1487 304.5,-36.1488 309,-46.1487 309,-46.1487"/>
<text text-anchor="middle" x="349" y="-58.3" font-family="Times,serif" font-size="14.00">connectors</text>
</g>
<!-- News::Version -->
<g id="node9" class="node"><title>News::Version</title>
<ellipse fill="none" stroke="black" cx="491" cy="-18" rx="77.0154" ry="18"/>
<text text-anchor="middle" x="491" y="-14.3" font-family="Times,serif" font-size="14.00">News::Version</text>
</g>
<!-- News&#45;&gt;News::Version -->
<g id="edge6" class="edge"><title>News&#45;&gt;News::Version</title>
<path fill="none" stroke="#4c8c67" d="M331.937,-105.166C339.051,-99.2317 347.103,-93.0218 355,-88 370.769,-77.972 376.264,-78.315 393,-70 412.747,-60.1893 434.521,-48.9053 452.52,-39.4495"/>
<ellipse fill="none" stroke="#4c8c67" cx="328.739" cy="-107.898" rx="4.00002" ry="4.00002"/>
<polygon fill="#4c8c67" stroke="#4c8c67" points="452.709,-39.3496 463.654,-38.6703 457.133,-37.0193 461.557,-34.6889 461.557,-34.6889 461.557,-34.6889 457.133,-37.0193 459.46,-30.7075 452.709,-39.3496 452.709,-39.3496"/>
<text text-anchor="middle" x="452.5" y="-58.3" font-family="Times,serif" font-size="14.00">versions</text>
</g>
<!-- Message -->
<g id="node3" class="node"><title>Message</title>
<polygon fill="none" stroke="black" points="444,-145 364,-145 364,-109 444,-109 444,-145"/>
<text text-anchor="middle" x="404" y="-123.3" font-family="Times,serif" font-size="14.00">Message</text>
</g>
</g>
</svg>
