<?xml version="1.0" encoding="UTF-8" standalone="no"?>
<!DOCTYPE svg PUBLIC "-//W3C//DTD SVG 1.1//EN"
 "http://www.w3.org/Graphics/SVG/1.1/DTD/svg11.dtd">
<!-- Generated by graphviz version 2.28.0 (20120228.1926)
 -->
<!-- Title: models_diagram Pages: 1 -->
<svg width="630pt" height="338pt"
 viewBox="0.00 0.00 630.00 338.00" xmlns="http://www.w3.org/2000/svg" xmlns:xlink="http://www.w3.org/1999/xlink">
<g id="graph1" class="graph" transform="scale(1 1) rotate(0) translate(4 334)">
<title>models_diagram</title>
<polygon fill="white" stroke="white" points="-4,5 -4,-334 627,-334 627,5 -4,5"/>
<!-- _diagram_info -->
<g id="node1" class="node"><title>_diagram_info</title>
<text text-anchor="start" x="8" y="-233.6" font-family="Times,serif" font-size="13.00">Models diagram</text>
<text text-anchor="start" x="8" y="-219.6" font-family="Times,serif" font-size="13.00">Date: Oct 02 2012 &#45; 20:15</text>
<text text-anchor="start" x="8" y="-205.6" font-family="Times,serif" font-size="13.00">Migration version: 20120925191312</text>
<text text-anchor="start" x="8" y="-191.6" font-family="Times,serif" font-size="13.00">Generated by RailRoady 1.1.0</text>
<text text-anchor="start" x="8" y="-177.6" font-family="Times,serif" font-size="13.00">http://railroady.prestonlee.com</text>
</g>
<!-- News -->
<g id="node2" class="node"><title>News</title>
<polyline fill="none" stroke="black" points="284,-88.5 442,-88.5 "/>
<path fill="none" stroke="black" d="M442,-88.5C448,-88.5 454,-94.5 454,-100.5"/>
<polyline fill="none" stroke="black" points="454,-100.5 454,-317.5 "/>
<path fill="none" stroke="black" d="M454,-317.5C454,-323.5 448,-329.5 442,-329.5"/>
<polyline fill="none" stroke="black" points="442,-329.5 284,-329.5 "/>
<path fill="none" stroke="black" d="M284,-329.5C278,-329.5 272,-323.5 272,-317.5"/>
<polyline fill="none" stroke="black" points="272,-317.5 272,-100.5 "/>
<path fill="none" stroke="black" d="M272,-100.5C272,-94.5 278,-88.5 284,-88.5"/>
<text text-anchor="middle" x="363" y="-314.3" font-family="Times,serif" font-size="14.00">News</text>
<polyline fill="none" stroke="black" points="272,-306.5 454,-306.5 "/>
<text text-anchor="start" x="280" y="-291.3" font-family="Times,serif" font-size="14.00">id :integer</text>
<text text-anchor="start" x="280" y="-276.3" font-family="Times,serif" font-size="14.00">version :integer</text>
<text text-anchor="start" x="280" y="-261.3" font-family="Times,serif" font-size="14.00">lock_version :integer</text>
<text text-anchor="start" x="280" y="-246.3" font-family="Times,serif" font-size="14.00">name :string</text>
<text text-anchor="start" x="280" y="-231.3" font-family="Times,serif" font-size="14.00">content :text</text>
<text text-anchor="start" x="280" y="-216.3" font-family="Times,serif" font-size="14.00">description :text</text>
<text text-anchor="start" x="280" y="-201.3" font-family="Times,serif" font-size="14.00">category_id :integer</text>
<text text-anchor="start" x="280" y="-186.3" font-family="Times,serif" font-size="14.00">created_at :datetime</text>
<text text-anchor="start" x="280" y="-171.3" font-family="Times,serif" font-size="14.00">updated_at :datetime</text>
<text text-anchor="start" x="280" y="-156.3" font-family="Times,serif" font-size="14.00">published :boolean</text>
<text text-anchor="start" x="280" y="-141.3" font-family="Times,serif" font-size="14.00">deleted :boolean</text>
<text text-anchor="start" x="280" y="-126.3" font-family="Times,serif" font-size="14.00">archived :boolean</text>
<text text-anchor="start" x="280" y="-111.3" font-family="Times,serif" font-size="14.00">created_by_id :integer</text>
<text text-anchor="start" x="280" y="-96.3" font-family="Times,serif" font-size="14.00">updated_by_id :integer</text>
</g>
<!-- Cms::Attachment -->
<g id="node5" class="node"><title>Cms::Attachment</title>
<ellipse fill="none" stroke="black" cx="166" cy="-18" rx="92.413" ry="18"/>
<text text-anchor="middle" x="166" y="-14.3" font-family="Times,serif" font-size="14.00">Cms::Attachment</text>
</g>
<!-- News&#45;&gt;Cms::Attachment -->
<g id="edge2" class="edge"><title>News&#45;&gt;Cms::Attachment</title>
<path fill="none" stroke="#9ebb55" d="M266.075,-90.8812C265.051,-89.9109 264.026,-88.9503 263,-88 244.068,-70.4623 220.525,-53.6161 201.375,-40.9598"/>
<ellipse fill="none" stroke="#9ebb55" cx="269.049" cy="-93.7568" rx="4.00002" ry="4.00002"/>
<polygon fill="#9ebb55" stroke="#9ebb55" points="201.297,-40.9093 195.373,-31.6813 197.107,-38.1807 192.917,-35.4521 192.917,-35.4521 192.917,-35.4521 197.107,-38.1807 190.462,-39.223 201.297,-40.9093 201.297,-40.9093"/>
<text text-anchor="middle" x="286.5" y="-58.3" font-family="Times,serif" font-size="14.00">attachments</text>
</g>
<!-- Cms::Connector -->
<g id="node7" class="node"><title>Cms::Connector</title>
<ellipse fill="none" stroke="black" cx="363" cy="-18" rx="86.1637" ry="18"/>
<text text-anchor="middle" x="363" y="-14.3" font-family="Times,serif" font-size="14.00">Cms::Connector</text>
</g>
<!-- News&#45;&gt;Cms::Connector -->
<g id="edge4" class="edge"><title>News&#45;&gt;Cms::Connector</title>
<path fill="none" stroke="#5827cb" d="M363,-80.2309C363,-67.6402 363,-55.9526 363,-46.2353"/>
<ellipse fill="none" stroke="#5827cb" cx="363" cy="-84.3034" rx="4" ry="4"/>
<polygon fill="#5827cb" stroke="#5827cb" points="363,-46.1582 367.5,-36.1581 363,-41.1582 363,-36.1582 363,-36.1582 363,-36.1582 363,-41.1582 358.5,-36.1582 363,-46.1582 363,-46.1582"/>
<text text-anchor="middle" x="403" y="-58.3" font-family="Times,serif" font-size="14.00">connectors</text>
</g>
<!-- News::Version -->
<g id="node9" class="node"><title>News::Version</title>
<ellipse fill="none" stroke="black" cx="545" cy="-18" rx="77.0154" ry="18"/>
<text text-anchor="middle" x="545" y="-14.3" font-family="Times,serif" font-size="14.00">News::Version</text>
</g>
<!-- News&#45;&gt;News::Version -->
<g id="edge6" class="edge"><title>News&#45;&gt;News::Version</title>
<path fill="none" stroke="#c802bd" d="M459.662,-91.3841C460.775,-90.2457 461.888,-89.1173 463,-88 479.429,-71.4919 499.398,-54.63 515.516,-41.7074"/>
<ellipse fill="none" stroke="#c802bd" cx="456.871" cy="-94.2764" rx="4.00002" ry="4.00002"/>
<polygon fill="#c802bd" stroke="#c802bd" points="515.72,-41.5457 526.351,-38.8572 519.637,-38.4386 523.555,-35.3315 523.555,-35.3315 523.555,-35.3315 519.637,-38.4386 520.758,-31.8058 515.72,-41.5457 515.72,-41.5457"/>
<text text-anchor="middle" x="529.5" y="-58.3" font-family="Times,serif" font-size="14.00">versions</text>
</g>
<!-- Message -->
<g id="node3" class="node"><title>Message</title>
<polygon fill="none" stroke="black" points="472,-186 472,-232 552,-232 552,-186 472,-186"/>
<text text-anchor="middle" x="512" y="-216.8" font-family="Times,serif" font-size="14.00">Message</text>
<polyline fill="none" stroke="black" points="472,-209 552,-209 "/>
<text text-anchor="middle" x="512" y="-193.8" font-family="Times,serif" font-size="14.00"> </text>
</g>
</g>
</svg>
